# xmcd
# 
# Track frame offsets:
#     150
#     16659
#     34089
#     50807
#     69538
# 
# Disc length: 1236
# 
# Revision: 0
# Processed by: cddbd v1.5.2PL0 Copyright (c) Steve Scherf et al.
# Submitted via: fre:ac v1.0.17
# 
DISCID=3b04d205
DTITLE=Redhill - Redhill
DYEAR=2016
DGENRE=Pop
TTITLE0=Song of Love and Hate
TTITLE1=Los Angeles
TTITLE2=With You
TTITLE3=The Way She Moves
TTITLE4=Summer
EXTD=
EXTT0=
EXTT1=
EXTT2=
EXTT3=
EXTT4=
PLAYORDER=
